<?xml version="1.0" encoding="utf-8"?>
<!-- Svg Vector Icons : http://www.onlinewebfonts.com/icon -->
<!DOCTYPE svg PUBLIC "-//W3C//DTD SVG 1.1//EN" "http://www.w3.org/Graphics/SVG/1.1/DTD/svg11.dtd">
<svg version="1.1" xmlns="http://www.w3.org/2000/svg" xmlns:xlink="http://www.w3.org/1999/xlink" x="0px" y="0px"
     viewBox="0 0 256 256" style="enable-background:new 0 0 74.4 74.4;" xml:space="preserve" preserveAspectRatio="xMinYMid meet">
<metadata> Svg Vector Icons : http://www.onlinewebfonts.com/icon </metadata>
    <g>
        <path d="M234.6,26.2H21.4c-6.3,0-11.4,5.1-11.4,11.4v133.7c0,6.3,5.1,11.4,11.4,11.4h79.7v25.9h-31c-5.8,0-10.6,4.7-10.6,10.6s4.7,10.6,10.6,10.6h115.8c5.8,0,10.6-4.7,10.6-10.6s-4.7-10.6-10.6-10.6h-31v-25.9h79.7c6.3,0,11.4-5.1,11.4-11.4V37.6C246,31.3,240.9,26.2,234.6,26.2z M228.9,165.6H27.1V43.3h201.7V165.6z"/>
        <path d="M64.1,110.9l36,16.8c0.9,0.4,1.9,0.7,2.9,0.7c1.3,0,2.6-0.4,3.8-1.1c2-1.3,3.2-3.5,3.2-5.9v-0.2c0-2.7-1.6-5.2-4-6.4l-22.6-10.5L106,93.9c2.5-1.2,4-3.6,4-6.4v-0.2c0-2.4-1.2-4.6-3.2-5.9c-1.1-0.7-2.4-1.1-3.8-1.1c-1,0-2,0.2-2.9,0.7L64,97.7c-2.5,1.2-4,3.6-4,6.4v0.5C60,107.3,61.6,109.8,64.1,110.9z"/>
        <path d="M110.4,145.1c1.3,1.8,3.4,2.9,5.7,2.9h0.2c3.1,0,5.7-2,6.7-4.9l23.7-73.6c0.7-2.1,0.3-4.5-1-6.3c-1.3-1.8-3.4-2.9-5.7-2.9h-0.2c-3.1,0-5.7,2-6.7,4.9l-23.7,73.6C108.7,140.9,109.1,143.3,110.4,145.1z"/>
        <path d="M145.9,87.5c0,2.7,1.6,5.2,4,6.4l22.5,10.5L150,114.8c-2.5,1.2-4,3.6-4,6.4v0.2c0,2.4,1.2,4.6,3.3,5.9c1.1,0.7,2.4,1.1,3.8,1.1c1,0,2-0.2,3-0.6L192,111c2.5-1.2,4-3.6,4-6.4v-0.5c0-2.7-1.6-5.2-4-6.4L155.9,81c-0.9-0.4-1.9-0.7-2.9-0.7c-1.3,0-2.6,0.4-3.8,1.1c-2,1.3-3.3,3.5-3.3,5.9V87.5L145.9,87.5z"/>
    </g>
</svg>